<svg width="31" height="31" viewBox="0 0 31 31" fill="none" xmlns="http://www.w3.org/2000/svg">
<g id="codicon:workspace-trusted" clip-path="url(#clip0_2952_4749)">
<g id="Group">
<path id="Vector" d="M15.5964 -2.58296e-05C16.1027 -2.58296e-05 16.6013 0.0329583 17.0651 0.110568C17.5219 0.170663 17.9726 0.270641 18.4121 0.409366C18.8527 0.543243 19.2837 0.710104 19.7146 0.91965C20.134 1.1195 20.5649 1.36397 20.9959 1.62978C21.7244 2.09544 22.4414 2.47185 23.1719 2.77258C24.61 3.35045 26.1307 3.69432 27.6766 3.79121C28.4613 3.84748 29.2671 3.88046 30.1058 3.88046V11.6414C30.1058 13.116 29.9184 14.513 29.5435 15.844C29.1833 17.156 28.6716 18.4213 28.0187 19.6139C27.3685 20.8049 26.5993 21.9263 25.7229 22.9608C24.833 24.0189 23.8694 25.0122 22.8395 25.9333C21.796 26.8571 20.6969 27.7157 19.5484 28.5041C18.4005 29.3035 17.241 30.0466 16.0815 30.7218L15.6176 30.9993L15.1538 30.7218C13.9619 30.029 12.7976 29.2891 11.6637 28.5041C10.5088 27.7246 9.40912 26.8656 8.37258 25.9333C7.34329 25.0121 6.38041 24.0188 5.49118 22.9608C4.61708 21.9219 3.84439 20.8011 3.18374 19.6139C2.542 18.416 2.03079 17.152 1.65897 15.844C1.28168 14.4756 1.09566 13.0612 1.10626 11.6414V3.88046C1.94691 3.88046 2.75278 3.84748 3.53739 3.79121C4.30975 3.73735 5.0771 3.62646 5.83324 3.45943C6.5734 3.29257 7.31356 3.07138 8.04212 2.77258C8.79813 2.46625 9.52296 2.08744 10.2066 1.64142C11.0569 1.08651 11.9188 0.67712 12.7691 0.407426C13.6849 0.125569 14.6386 -0.0118837 15.5964 -2.58296e-05ZM28.1617 5.78772C26.6988 5.71646 25.2496 5.47091 23.8444 5.05625C22.4467 4.63765 21.1154 4.0216 19.8905 3.2266C19.2551 2.80789 18.5651 2.47946 17.8401 2.25066C17.1158 2.0309 16.3626 1.92231 15.606 1.92858C14.8439 1.92363 14.0851 2.03217 13.3546 2.25066C12.6285 2.47202 11.9394 2.80096 11.31 3.2266C10.083 4.02594 8.74822 4.64469 7.34641 5.06401C5.97624 5.4637 4.5423 5.70817 3.0388 5.79743V11.6511C3.0388 12.9375 3.20499 14.1676 3.53739 15.3531C3.87602 16.5283 4.34264 17.6625 4.92881 18.735C5.522 19.8187 6.22116 20.8404 7.01595 21.785C7.82181 22.7377 8.68179 23.6244 9.6094 24.4665C10.537 25.3105 11.5091 26.0866 12.5256 26.8064C13.5518 27.5282 14.5799 28.182 15.606 28.7796C16.6568 28.1655 17.6813 27.5072 18.6768 26.8064C19.7001 26.0888 20.6773 25.3073 21.6027 24.4665C22.5303 23.6244 23.3922 22.7377 24.1981 21.785C24.993 20.8405 25.6921 19.8187 26.2852 18.735C26.8688 17.6638 27.3285 16.5291 27.6554 15.3531C27.9979 14.1494 28.1684 12.903 28.1617 11.6511V5.78772Z" fill="url(#paint0_linear_2952_4749)"/>
<path id="Vector_2" fill-rule="evenodd" clip-rule="evenodd" d="M22.8009 9.13649L21.9506 8.40308L21.166 8.47099L12.7401 18.4594L9.87033 14.346L9.09732 14.2141L8.20256 14.8563L8.06921 15.6324L11.7584 20.9215L12.1778 21.1544L13.0609 21.2087L13.5132 21.0108L22.8569 9.92229L22.8009 9.13649Z" fill="url(#paint1_linear_2952_4749)"/>
</g>
</g>
<defs>
<linearGradient id="paint0_linear_2952_4749" x1="24.5617" y1="3.30441" x2="2.61422" y2="23.8359" gradientUnits="userSpaceOnUse">
<stop stop-color="#18C8FF"/>
<stop offset="1" stop-color="#C608FF"/>
</linearGradient>
<linearGradient id="paint1_linear_2952_4749" x1="20.0299" y1="9.76838" x2="11.0368" y2="20.1534" gradientUnits="userSpaceOnUse">
<stop stop-color="#18C8FF"/>
<stop offset="1" stop-color="#C608FF"/>
</linearGradient>
<clipPath id="clip0_2952_4749">
<rect width="31" height="31" fill="white"/>
</clipPath>
</defs>
</svg>
