<svg width="31" height="31" viewBox="0 0 31 31" fill="none" xmlns="http://www.w3.org/2000/svg">
<g id="tdesign:icon">
<path id="Vector" d="M28.5858 2.58337H10.3841V9.27902C8.65833 9.63175 7.06036 10.4454 5.75992 11.6334C4.45948 12.8215 3.50513 14.3396 2.99826 16.0265C2.49139 17.7134 2.45093 19.5061 2.88117 21.2142C3.31141 22.9222 4.19629 24.4819 5.4418 25.7274C6.68731 26.9729 8.24694 27.8578 9.95501 28.288C11.6631 28.7183 13.4558 28.6778 15.1427 28.1709C16.8296 27.6641 18.3477 26.7097 19.5358 25.4093C20.7238 24.1088 21.5374 22.5109 21.8902 20.7851H28.5858V2.58337ZM22.0644 18.1849C21.9069 15.8285 20.8997 13.6094 19.2297 11.9395C17.5598 10.2695 15.3407 9.26232 12.9843 9.1048V5.18362H25.9856V18.1849H22.0644ZM12.3343 11.6842C14.2307 11.6842 16.0495 12.4376 17.3906 13.7786C18.7316 15.1197 19.4849 16.9385 19.4849 18.8349C19.4849 20.7314 18.7316 22.5502 17.3906 23.8912C16.0495 25.2323 14.2307 25.9856 12.3343 25.9856C10.4378 25.9856 8.61897 25.2323 7.27795 23.8912C5.93694 22.5502 5.18356 20.7314 5.18356 18.8349C5.18356 16.9385 5.93694 15.1197 7.27795 13.7786C8.61897 12.4376 10.4378 11.6842 12.3343 11.6842Z" fill="url(#paint0_linear_2952_4753)"/>
</g>
<defs>
<linearGradient id="paint0_linear_2952_4753" x1="23.6152" y1="5.35543" x2="5.1667" y2="23.804" gradientUnits="userSpaceOnUse">
<stop stop-color="#18C8FF"/>
<stop offset="1" stop-color="#C608FF"/>
</linearGradient>
</defs>
</svg>
